<?xml version="1.0" encoding="utf-8"?>
<!-- Generator: Adobe Illustrator 23.0.3, SVG Export Plug-In . SVG Version: 6.00 Build 0)  -->
<svg version="1.1"
	 id="Layer_1" xmlns:cc="http://creativecommons.org/ns#" xmlns:dc="http://purl.org/dc/elements/1.1/" xmlns:inkscape="http://www.inkscape.org/namespaces/inkscape" xmlns:rdf="http://www.w3.org/1999/02/22-rdf-syntax-ns#" xmlns:sodipodi="http://sodipodi.sourceforge.net/DTD/sodipodi-0.dtd" xmlns:svg="http://www.w3.org/2000/svg"
	 xmlns="http://www.w3.org/2000/svg" xmlns:xlink="http://www.w3.org/1999/xlink" x="0px" y="0px" viewBox="0 0 26 32.5"
	 style="enable-background:new 0 0 26 32.5;" xml:space="preserve">
<style type="text/css">
	.st0{stroke:#000000;stroke-width:0.25;stroke-miterlimit:10;}
</style>
<g transform="translate(0,-1026.3622)">
	<g transform="matrix(1.0664186,0,0,1.0664186,58.689952,71.970494)">
		<g transform="translate(-56.000005,-133)">
			<g transform="matrix(0.93771808,0,0,0.93771808,2.8408121,65.511965)">
				<path class="st0" d="M11.1,1027.4c-6.7,0-12.1,5.4-12.1,12.1s5.4,12.1,12.1,12.1s12.1-5.4,12.1-12.1S17.8,1027.4,11.1,1027.4z
					 M11.1,1028.3c6.2,0,11.2,5,11.2,11.2c0,6.2-5,11.2-11.2,11.2s-11.2-5-11.2-11.2C-0.1,1033.3,4.9,1028.3,11.1,1028.3z
					 M12.1,1034.8v0.5v3.5c-1-1-2-1.9-3-2.9c-0.1-0.1-0.2-0.1-0.3-0.1c-0.3,0-0.5,0.2-0.5,0.5v3.1v0.3v3.1c0,0.4,0.5,0.6,0.8,0.3
					l3-2.9v3.5v0.5H13v-0.5v-8.4v-0.5H12.1z M9.3,1037.3c0.7,0.7,1.4,1.4,2.2,2.2l-2.2,2.2V1037.3z"/>
			</g>
		</g>
	</g>
</g>
<text transform="matrix(1 0 0 1 0 41)" style="font-family:'Arial-BoldMT'; font-size:5px;">Created by Chameleon Design</text>
<text transform="matrix(1 0 0 1 0 46)" style="font-family:'Arial-BoldMT'; font-size:5px;">from the Noun Project</text>
</svg>
