<?xml version="1.0" encoding="utf-8"?>
<!-- Generator: Adobe Illustrator 25.0.0, SVG Export Plug-In . SVG Version: 6.00 Build 0)  -->
<svg version="1.1" id="Layer_1" xmlns="http://www.w3.org/2000/svg" xmlns:xlink="http://www.w3.org/1999/xlink" x="0px" y="0px"
	 viewBox="0 0 1080 1080" style="enable-background:new 0 0 1080 1080;" xml:space="preserve">
<style type="text/css">
	.st0{fill:#FFFFFF;}
	.st1{fill:#804ED5;}
</style>
<circle class="st0" cx="540" cy="540" r="540"/>
<g id="Google_11">
	<g id="Google_12_1_">
		<path class="st1" d="M240.1,539.7C234,385.2,372.3,242.5,530.5,240.5c80.4-4.6,159.4,21.9,219.9,73.9
			c-24.9,26.7-50.4,53.5-77.6,79.3c-53.8-31.9-118.5-56.1-181-34.5c-100.6,35.2-153.1,143.6-117.1,242
			c36,98.5,146.7,149.8,247.4,114.6c49.7-20.2,86.6-62.4,99.4-113.6c-58.5-1-117,0-175.6-2c0-34.1,0-68,0-102.1
			c97.4,0,195.2,0,292.8,0c5.9,83.2-6.7,172.6-62,239.6c-76,95.5-216.1,123.6-330.3,86.2C323,782.3,240.1,668.5,240.2,540.6"/>
	</g>
</g>
</svg>
