<?xml version="1.0" encoding="utf-8"?>
<!-- Generator: Adobe Illustrator 24.3.0, SVG Export Plug-In . SVG Version: 6.00 Build 0)  -->
<svg version="1.1" xmlns="http://www.w3.org/2000/svg" xmlns:xlink="http://www.w3.org/1999/xlink" x="0px" y="0px"
	 viewBox="0 0 746.9 97.3" style="enable-background:new 0 0 746.9 97.3;" xml:space="preserve">
<style type="text/css">
	.st0{display:none;}
	.st1{display:inline;fill:#5D4C80;}
	.st2{display:inline;}
	.st3{fill:#FFFFFF;}
	.st4{stroke:#000000;stroke-miterlimit:10;}
	.st5{fill:none;stroke:#000000;stroke-width:6;stroke-linecap:round;stroke-miterlimit:10;}
	.st6{fill:none;stroke:#000000;stroke-width:6;stroke-miterlimit:10;}
	.st7{fill:#E5E5E5;}
	.st8{fill:none;stroke:#FFFFFF;stroke-linecap:round;stroke-miterlimit:10;}
	.st9{fill:none;stroke:#FFFFFF;stroke-width:4;stroke-linecap:round;stroke-miterlimit:10;}
	.st10{fill:none;stroke:#FFFFFF;stroke-width:5;stroke-miterlimit:10;}
	.st11{fill:#FFFFFF;stroke:#FFFFFF;stroke-miterlimit:10;}
	.st12{font-family:'MADEEvolveSansEVO';}
	.st13{font-size:90px;}
</style>
<g id="Layer_1" class="st0">
</g>
<g id="Layer_2">
	<g>
		<g>
			<g>
				<path class="st11" d="M45.5,82C25.4,82,9,65.6,9,45.5c0-3.6,0.5-7.1,1.5-10.5c0.2-0.7,1-1.1,1.7-0.9c0.7,0.2,1.1,1,0.9,1.7
					c-0.9,3.1-1.4,6.4-1.4,9.7c0,18.6,15.2,33.8,33.8,33.8c3.3,0,6.6-0.5,9.8-1.4c0.7-0.2,1.5,0.2,1.7,0.9c0.2,0.7-0.2,1.5-0.9,1.7
					C52.7,81.5,49.1,82,45.5,82z"/>
			</g>
			<g>
				<path class="st11" d="M65.4,75.9c-0.4,0-0.9-0.2-1.1-0.6c-0.4-0.6-0.3-1.5,0.4-1.9c9.2-6.3,14.7-16.8,14.7-27.9
					c0-18.6-15.2-33.8-33.8-33.8c-11.2,0-21.6,5.5-27.9,14.7c-0.4,0.6-1.3,0.8-1.9,0.4c-0.6-0.4-0.8-1.3-0.4-1.9
					C22.2,14.9,33.5,9,45.5,9C65.6,9,82,25.4,82,45.5c0,12.1-5.9,23.3-15.9,30.1C65.9,75.8,65.6,75.9,65.4,75.9z"/>
			</g>
			<g>
				<path class="st11" d="M85.3,90.5c-3.8,0-9.4-2.4-16.8-7.2c-9.9-6.4-21.6-16.2-33.1-27.6C23.9,44.2,14.1,32.5,7.7,22.6
					C0.8,11.9-1.2,4.9,1.9,1.9c2-2,5.7-1.8,11,0.5c4.7,2,10.6,5.7,17.2,10.6l-1.6,2.2C14.2,4.5,5.8,1.8,3.8,3.8
					C1.6,6,5.7,14.5,10,21.1c6.3,9.7,16,21.3,27.3,32.6c11.3,11.3,22.9,21,32.6,27.3c6.6,4.2,15.1,8.4,17.3,6.2
					c2-2-0.7-10.5-11.5-24.9l2.2-1.6c6.3,8.5,16.2,23.4,11.2,28.4C88.2,90,86.9,90.5,85.3,90.5z"/>
			</g>
		</g>
		<g>
			<text transform="matrix(1 0 0 1 140.5 76.9991)" class="st3 st12 st13">Planet Media</text>
		</g>
	</g>
</g>
</svg>
