<?xml version="1.0" encoding="utf-8"?>
<!-- Generator: Adobe Illustrator 25.0.0, SVG Export Plug-In . SVG Version: 6.00 Build 0)  -->
<svg version="1.1" id="Layer_1" xmlns="http://www.w3.org/2000/svg" xmlns:xlink="http://www.w3.org/1999/xlink" x="0px" y="0px"
	 viewBox="0 0 32 32" style="enable-background:new 0 0 32 32;" xml:space="preserve">
<style type="text/css">
	.st0{fill:#804ED5;stroke:#804ED5;stroke-width:0.5;stroke-miterlimit:10;}
</style>
<g>
	<g>
		<path class="st0" d="M19.6,28c-1.1,0.4-2.4,0.6-3.6,0.6C9.1,28.6,3.4,22.9,3.4,16c0-1.2,0.2-2.4,0.5-3.6C4,12.1,4.3,12,4.5,12.1
			s0.4,0.3,0.3,0.6c-0.3,1.1-0.5,2.2-0.5,3.3c0,6.4,5.2,11.6,11.6,11.6c1.1,0,2.3-0.2,3.4-0.5c0.2-0.1,0.5,0.1,0.6,0.3
			C20,27.6,19.8,27.9,19.6,28z"/>
	</g>
	<g>
		<path class="st0" d="M27.4,21.5c0.8-1.7,1.2-3.5,1.2-5.5c0-6.9-5.7-12.6-12.6-12.6c-1.9,0-3.8,0.5-5.5,1.3
			C8.3,3.1,6.3,1.9,4.8,1.2C3,0.4,1.7,0.3,1,1c-1.1,1-0.4,3.4,2,7.1c2.2,3.4,5.5,7.4,9.5,11.4c4,3.9,8,7.3,11.4,9.5
			c2.6,1.7,4.5,2.5,5.8,2.5c0.6,0,1-0.2,1.3-0.6C32.6,29.3,29.6,24.4,27.4,21.5z M30.3,30.3c-0.8,0.8-3.7-0.7-6-2.1
			C21,26,17,22.7,13.1,18.8S5.9,10.9,3.7,7.6c-1.4-2.3-2.9-5.2-2.1-6C2.3,0.9,5,1.8,9.5,5.2C8,6.2,6.7,7.4,5.6,8.9
			c-0.1,0.2,0,0.5,0.2,0.7c0.2,0.1,0.5,0,0.7-0.1c2.2-3.2,5.7-5.1,9.6-5.1c6.4,0,11.6,5.2,11.6,11.6c0,3.8-1.9,7.4-5.1,9.6
			c-0.2,0.2-0.2,0.5-0.1,0.7c0.1,0.1,0.3,0.2,0.4,0.2c0,0,0.1-0.1,0.2-0.1c1.6-1.1,2.8-2.4,3.8-4C30.2,27,31,29.6,30.3,30.3z"/>
	</g>
</g>
</svg>
